<svg width="14" height="14" viewBox="0 0 14 14" fill="none" xmlns="http://www.w3.org/2000/svg">
<g clip-path="url(#clip0_45_1209)">
<path d="M10.5 4.66669C11.4665 4.66669 12.25 3.88319 12.25 2.91669C12.25 1.95019 11.4665 1.16669 10.5 1.16669C9.5335 1.16669 8.75 1.95019 8.75 2.91669C8.75 3.88319 9.5335 4.66669 10.5 4.66669Z" stroke="white" stroke-width="1.16667" stroke-linecap="round" stroke-linejoin="round"/>
<path d="M3.5 8.75C4.4665 8.75 5.25 7.9665 5.25 7C5.25 6.0335 4.4665 5.25 3.5 5.25C2.5335 5.25 1.75 6.0335 1.75 7C1.75 7.9665 2.5335 8.75 3.5 8.75Z" stroke="white" stroke-width="1.16667" stroke-linecap="round" stroke-linejoin="round"/>
<path d="M10.5 12.8333C11.4665 12.8333 12.25 12.0498 12.25 11.0833C12.25 10.1168 11.4665 9.33331 10.5 9.33331C9.5335 9.33331 8.75 10.1168 8.75 11.0833C8.75 12.0498 9.5335 12.8333 10.5 12.8333Z" stroke="white" stroke-width="1.16667" stroke-linecap="round" stroke-linejoin="round"/>
<path d="M5.01074 7.88086L8.99491 10.2025" stroke="white" stroke-width="1.16667" stroke-linecap="round" stroke-linejoin="round"/>
<path d="M8.98908 3.79749L5.01074 6.11915" stroke="white" stroke-width="1.16667" stroke-linecap="round" stroke-linejoin="round"/>
</g>
<defs>
<clipPath id="clip0_45_1209">
<rect width="14" height="14" fill="white"/>
</clipPath>
</defs>
</svg>
